<svg width="1215" height="117" viewBox="0 0 1215 117" fill="none" xmlns="http://www.w3.org/2000/svg">
<g filter="url(#filter0_d_164_1365)">
<path d="M1193.5 88.7222V23.2223H888.5C804 23.2223 495 18.2224 377.5 23.2222C290.5 26.9242 115.667 25.889 21 22.2223V95.2223C84 92.2222 248.2 90.5222 451 85.7222C653.8 80.9222 1031 84.7222 1193.5 88.7222Z" fill="#6D2A93"/>
<path d="M1193.5 88.7222V23.2223H888.5C804 23.2223 495 18.2224 377.5 23.2222C290.5 26.9242 115.667 25.889 21 22.2223V95.2223C84 92.2222 248.2 90.5222 451 85.7222C653.8 80.9222 1031 84.7222 1193.5 88.7222Z" stroke="#FFF200" stroke-width="2"/>
</g>
<defs>
<filter id="filter0_d_164_1365" x="0" y="0.000488281" width="1214.5" height="116.271" filterUnits="userSpaceOnUse" color-interpolation-filters="sRGB">
<feFlood flood-opacity="0" result="BackgroundImageFix"/>
<feColorMatrix in="SourceAlpha" type="matrix" values="0 0 0 0 0 0 0 0 0 0 0 0 0 0 0 0 0 0 127 0" result="hardAlpha"/>
<feOffset/>
<feGaussianBlur stdDeviation="10"/>
<feComposite in2="hardAlpha" operator="out"/>
<feColorMatrix type="matrix" values="0 0 0 0 0 0 0 0 0 0 0 0 0 0 0 0 0 0 0.09 0"/>
<feBlend mode="normal" in2="BackgroundImageFix" result="effect1_dropShadow_164_1365"/>
<feBlend mode="normal" in="SourceGraphic" in2="effect1_dropShadow_164_1365" result="shape"/>
</filter>
</defs>
</svg>
